<?xml version="1.0" standalone="no"?>
<!DOCTYPE svg PUBLIC "-//W3C//DTD SVG 20010904//EN"
 "http://www.w3.org/TR/2001/REC-SVG-20010904/DTD/svg10.dtd">
<svg version="1.0" xmlns="http://www.w3.org/2000/svg"
 width="561.000000pt" height="711.000000pt" viewBox="0 0 561.000000 711.000000"
 preserveAspectRatio="xMidYMid meet">

<g transform="translate(0.000000,711.000000) scale(0.100000,-0.100000)"
fill="#000000" stroke="none">
<path d="M2700 6896 c-19 -7 -201 -88 -405 -181 -203 -92 -509 -230 -680 -306
-173 -77 -318 -148 -327 -160 -26 -31 -23 -91 6 -118 31 -29 1300 -598 1429
-640 35 -12 44 -9 239 77 112 49 393 173 625 276 233 102 427 186 433 186 6 0
10 -87 10 -248 0 -240 -1 -250 -21 -268 -54 -49 -64 -141 -21 -201 12 -17 20
-32 17 -34 -6 -6 -105 -386 -105 -404 0 -8 9 -24 20 -35 19 -19 33 -20 203
-20 179 0 184 1 205 23 12 13 22 32 22 42 0 10 -23 106 -50 213 l-51 193 22
36 c41 66 18 181 -42 213 -18 10 -19 25 -19 287 0 265 1 278 20 298 12 12 23
38 26 57 11 66 -13 81 -421 257 -203 88 -524 227 -712 309 -188 82 -352 152
-365 155 -12 3 -39 0 -58 -7z"/>
<path d="M713 6085 c-155 -34 -314 -160 -386 -306 -72 -147 -68 39 -65 -2684
3 -2359 4 -2452 22 -2505 75 -223 239 -381 451 -435 51 -13 199 -15 1061 -15
l1002 0 31 35 c17 20 31 45 31 56 0 30 -27 77 -53 91 -17 10 -237 14 -1032 18
l-1010 5 -66 32 c-81 40 -169 129 -207 210 l-27 58 -3 2465 c-2 2275 -1 2469
14 2518 37 115 134 213 251 251 53 18 88 21 213 21 149 0 150 0 180 28 26 22
31 35 32 71 0 38 -4 49 -31 73 l-31 28 -158 -1 c-91 0 -183 -6 -219 -14z"/>
<path d="M4413 6086 c-35 -16 -53 -43 -53 -80 0 -29 19 -76 32 -76 4 0 8 -130
8 -288 0 -318 4 -346 61 -415 17 -21 54 -50 83 -65 l51 -27 288 -5 288 -5 1
-2230 1 -2230 -23 -58 c-42 -111 -137 -202 -255 -246 -54 -20 -73 -21 -684
-21 -422 0 -638 -4 -659 -11 -64 -22 -83 -103 -36 -158 l26 -31 647 0 c715 0
702 -1 836 65 128 62 221 158 285 290 21 44 43 107 49 139 8 41 11 763 11
2335 l-1 2276 -22 52 c-18 43 -81 112 -365 402 -242 246 -357 356 -388 371
-56 28 -139 35 -181 16z m422 -519 c129 -128 235 -235 235 -237 0 -3 -97 -3
-216 0 l-216 5 -24 28 c-24 28 -24 31 -24 233 0 112 2 204 5 204 2 0 110 -105
240 -233z"/>
<path d="M1772 5738 c-9 -9 -12 -84 -12 -275 0 -277 4 -307 47 -345 10 -10
185 -80 389 -157 203 -76 404 -153 447 -170 43 -17 89 -31 102 -31 14 0 101
29 193 64 92 35 277 106 412 156 303 114 328 126 351 164 17 28 19 55 19 313
l0 283 -23 5 c-14 4 -52 -8 -107 -33 -583 -270 -818 -375 -840 -375 -14 0
-145 54 -291 121 -379 173 -649 292 -663 292 -7 0 -17 -5 -24 -12z"/>
<path d="M1395 4669 c-268 -27 -478 -252 -492 -528 -9 -179 42 -316 167 -442
176 -179 411 -218 640 -107 90 43 214 168 258 260 34 70 62 189 62 261 -1 137
-68 294 -170 396 -125 127 -279 180 -465 160z m181 -196 c107 -35 182 -104
232 -211 24 -50 27 -69 27 -157 0 -93 -2 -105 -32 -166 -127 -257 -466 -296
-635 -73 -58 75 -81 157 -76 263 5 102 37 178 104 247 96 98 255 139 380 97z"/>
<path d="M1516 4160 l-112 -110 -40 41 c-41 43 -82 69 -109 69 -26 0 -55 -38
-55 -72 1 -47 15 -68 103 -147 54 -50 85 -71 103 -71 20 0 56 29 148 118 66
65 136 128 153 141 40 27 50 59 29 99 -17 33 -34 42 -78 42 -24 0 -50 -20
-142 -110z"/>
<path d="M2353 4335 c-39 -17 -53 -42 -53 -94 0 -28 7 -48 24 -68 l24 -28
1095 -3 1095 -2 31 25 c59 50 49 133 -19 167 -33 17 -106 18 -1100 18 -883 -1
-1070 -3 -1097 -15z"/>
<path d="M2378 3930 c-21 -4 -47 -15 -58 -25 -26 -24 -35 -78 -20 -116 26 -63
-28 -59 912 -59 l857 0 28 24 c24 21 28 32 28 75 0 62 -23 90 -86 102 -53 10
-1609 10 -1661 -1z"/>
<path d="M1315 3291 c-216 -62 -380 -245 -416 -463 -43 -262 112 -524 373
-629 66 -27 227 -37 311 -19 193 40 362 200 433 410 24 74 24 223 0 305 -58
194 -217 349 -412 399 -80 21 -212 19 -289 -3z m308 -199 c71 -32 159 -121
193 -195 25 -54 29 -74 29 -157 0 -83 -4 -103 -28 -154 -56 -120 -139 -192
-257 -222 -178 -45 -363 44 -443 214 -29 61 -32 76 -32 162 0 82 4 103 27 152
50 107 106 162 207 205 49 21 68 23 156 20 75 -3 112 -9 148 -25z"/>
<path d="M1266 2918 c-32 -45 -19 -87 48 -156 l41 -43 -30 -26 c-69 -59 -83
-116 -40 -158 36 -36 60 -31 121 26 l54 52 54 -52 c62 -58 86 -63 121 -25 38
41 32 75 -20 134 -51 58 -54 42 19 134 51 65 35 126 -34 126 -31 0 -45 -8 -89
-52 l-52 -53 -35 43 c-60 72 -128 93 -158 50z"/>
<path d="M2333 3105 c-26 -18 -43 -71 -36 -109 3 -14 17 -37 30 -51 l26 -25
1094 0 1095 0 29 29 c41 41 41 101 0 142 l-29 29 -1094 0 c-965 0 -1096 -2
-1115 -15z"/>
<path d="M2325 2686 c-45 -45 -45 -107 0 -152 l24 -24 691 0 692 0 29 29 c23
23 29 38 29 71 0 33 -6 48 -29 71 l-29 29 -692 0 -691 0 -24 -24z"/>
<path d="M3045 2220 c-256 -4 -306 -8 -338 -22 -62 -28 -111 -73 -143 -130
l-29 -53 -3 -576 c-3 -559 -2 -578 18 -631 28 -74 79 -131 148 -164 47 -23 75
-28 160 -32 l102 -5 0 -108 c0 -146 23 -198 97 -218 52 -15 90 2 203 91 146
114 207 159 269 201 l53 37 378 0 c451 0 451 0 546 95 102 101 99 78 100 699
0 291 -3 552 -8 580 -21 114 -91 193 -201 228 -57 18 -92 19 -557 16 -272 -2
-630 -5 -795 -8z m1299 -204 c69 -29 66 -3 66 -589 0 -579 1 -571 -60 -602
-24 -13 -89 -15 -413 -15 -257 0 -395 -4 -418 -11 -19 -6 -106 -65 -193 -131
-87 -66 -165 -122 -173 -125 -10 -4 -13 14 -13 88 0 157 -26 179 -208 179
-123 0 -168 12 -196 51 -14 21 -16 80 -16 560 0 527 0 537 21 563 11 14 35 30
52 35 18 5 354 10 775 10 614 1 748 -1 776 -13z"/>
<path d="M3488 1838 c-17 -15 -55 -94 -111 -233 -46 -115 -117 -289 -156 -386
-39 -96 -71 -187 -71 -202 0 -37 34 -57 96 -57 63 0 76 13 118 119 l29 71 182
0 182 0 27 -73 c39 -108 48 -117 107 -117 62 0 119 23 119 47 0 10 -10 38 -21
63 -11 25 -34 81 -50 125 -84 229 -255 628 -274 640 -11 7 -50 16 -86 20 -60
6 -68 5 -91 -17z m147 -374 c25 -65 45 -122 45 -126 0 -5 -48 -8 -106 -8 -97
0 -106 2 -100 18 48 131 101 251 108 244 5 -5 29 -62 53 -128z"/>
<path d="M1413 1840 c-24 -10 -26 -16 -23 -64 6 -96 121 -120 150 -31 24 74
-47 127 -127 95z"/>
</g>
</svg>
